<?xml version="1.0" encoding="UTF-8" standalone="no"?><svg xmlns="http://www.w3.org/2000/svg" xmlns:xlink="http://www.w3.org/1999/xlink" fill="#000000" height="19.6" preserveAspectRatio="xMidYMid meet" version="1" viewBox="0.0 40.2 100.0 19.6" width="100" zoomAndPan="magnify"><g><g id="change1_1"><path d="M 99.121094 50.027344 C 99.121094 54.941406 95.125 58.9375 90.214844 58.9375 L 9.785156 58.9375 C 4.875 58.9375 0.878906 54.941406 0.878906 50.027344 L 0.878906 49.972656 C 0.878906 45.058594 4.875 41.0625 9.785156 41.0625 L 90.214844 41.0625 C 95.125 41.0625 99.121094 45.058594 99.121094 49.972656 Z M 90.214844 40.183594 L 9.785156 40.183594 C 4.382812 40.183594 0 44.566406 0 49.972656 L 0 50.027344 C 0 55.433594 4.382812 59.816406 9.785156 59.816406 L 90.214844 59.816406 C 95.617188 59.816406 100 55.433594 100 50.027344 L 100 49.972656 C 100 44.566406 95.617188 40.183594 90.214844 40.183594" fill="#d34e67"/></g><g id="change1_2"><path d="M 9.785156 58.058594 C 5.355469 58.058594 1.753906 54.457031 1.753906 50.027344 L 1.753906 49.972656 C 1.753906 45.542969 5.355469 41.941406 9.785156 41.941406 L 90.214844 41.941406 C 94.644531 41.941406 98.246094 45.542969 98.246094 49.972656 L 98.246094 50.027344 C 98.246094 54.457031 94.644531 58.058594 90.214844 58.058594 L 9.785156 58.058594" fill="#d34e67"/></g><g id="change2_1"><path d="M 15.324219 49.976562 L 10.730469 45.382812 C 10.285156 45.832031 10.285156 46.554688 10.730469 47 L 13.710938 49.980469 L 10.730469 52.960938 C 10.285156 53.40625 10.285156 54.128906 10.730469 54.578125 L 15.324219 49.980469 L 15.320312 49.980469 L 15.324219 49.976562" fill="#09070b"/></g><g id="change2_2"><path d="M 12.582031 49.976562 L 7.988281 45.382812 C 7.542969 45.832031 7.542969 46.554688 7.988281 47 L 10.96875 49.980469 L 7.988281 52.960938 C 7.542969 53.40625 7.542969 54.128906 7.988281 54.578125 L 12.582031 49.980469 L 12.582031 49.976562" fill="#09070b"/></g></g></svg>